<svg xmlns="http://www.w3.org/2000/svg" viewBox="0 0 120 120" width="120" height="120" fill="none">
  <defs>
    <linearGradient id="facetTop_4c3" x1="0%" y1="0%" x2="100%" y2="100%">
      <stop offset="0%" stop-color="#FFFFFF" />
      <stop offset="50%" stop-color="#D4D4D8" />
      <stop offset="100%" stop-color="#A1A1AA" />
    </linearGradient>
    <linearGradient id="facetBottom_4c3" x1="0%" y1="0%" x2="100%" y2="100%">
      <stop offset="0%" stop-color="#71717A" />
      <stop offset="50%" stop-color="#3F3F46" />
      <stop offset="100%" stop-color="#27272A" />
    </linearGradient>
    <linearGradient id="innerFacet_4c3" x1="0%" y1="0%" x2="100%" y2="0%">
      <stop offset="0%" stop-color="#FAFAFA" />
      <stop offset="100%" stop-color="#E4E4E7" />
    </linearGradient>
  </defs>
  <!-- Background Container -->
  <rect x="4" y="4" width="112" height="112" rx="24" fill="#0B0B0E" stroke="rgba(255,255,255,0.12)" stroke-width="1.5" />
  
  <!-- Outer Faceted Upper Armor Wing -->
  <path d="M 28 26 L 66 26 C 86 26 98 42 98 60 L 52 60 L 46 60 Z" 
        fill="url(#facetTop_4c3)" />
        
  <!-- Outer Faceted Lower Armor Wing (Darker Bevel) -->
  <path d="M 28 94 L 66 94 C 86 94 98 78 98 60 L 52 60 L 46 60 Z" 
        fill="url(#facetBottom_4c3)" />

  <!-- Negative Center Cutout to form Monogram D hollow -->
  <polygon points="40,36 60,36 78,52 60,60 46,60" fill="#0B0B0E" opacity="0.95" />
  <polygon points="40,84 60,84 78,68 60,60 46,60" fill="#0B0B0E" opacity="0.95" />

  <!-- Inner Interlocking Stealth Core (Second D Facet) -->
  <path d="M 48 40 L 68 40 C 78 40 84 48 84 60 C 84 72 78 80 68 80 L 48 80 L 58 60 Z" 
        stroke="url(#innerFacet_4c3)" stroke-width="4.5" stroke-linejoin="miter" fill="#18181B" />

  <!-- Facet Crease Spine Lines -->
  <line x1="28" y1="26" x2="46" y2="60" stroke="#FFFFFF" stroke-width="1.5" opacity="0.8" />
  <line x1="28" y1="94" x2="46" y2="60" stroke="#71717A" stroke-width="1.5" />
  <line x1="66" y1="26" x2="98" y2="60" stroke="#FFFFFF" stroke-width="1.5" opacity="0.9" />

  <!-- Diamond Mach Apex Indicator -->
  <polygon points="98,60 102,57 106,60 102,63" fill="#FFFFFF" />
</svg>
